# xmcd
#
# Track frame offsets: 
#        150
#        18295
#        34682
#        50391
#        68188
#        83487
#        96729
#        112977
#        125980
#        142677
#        155483
#        170528
#        190282
#        208573
#        227695
#        244321
#        269558
#
# Disc length: 3656 seconds
#
# Revision: 1
# Processed by: cddbd v1.5.2PL0 Copyright (c) Steve Scherf et al.
# Submitted via: ExactAudioCopy v1.3
#
DISCID=ed0e4611
DTITLE=Lady Gaga - The fame
DYEAR=2009
DGENRE=Dance
TTITLE0=Just dance
TTITLE1=Lovegame
TTITLE2=Paparazzi
TTITLE3=Poker face
TTITLE4=I like it rough
TTITLE5=Eh, eh (nothing else I can say)
TTITLE6=Starstruck
TTITLE7=Beautiful, dirty, rich
TTITLE8=The fame
TTITLE9=Money honey
TTITLE10=Boys boys boys
TTITLE11=Papergangsta
TTITLE12=Brown eyes
TTITLE13=Summerboy
TTITLE14=Disco heaven
TTITLE15=Again again
TTITLE16=[data]
EXTD=
EXTT0=
EXTT1=
EXTT2=
EXTT3=
EXTT4=
EXTT5=
EXTT6=
EXTT7=
EXTT8=
EXTT9=
EXTT10=
EXTT11=
EXTT12=
EXTT13=
EXTT14=
EXTT15=
EXTT16=
PLAYORDER=
